<svg width="64" height="86" viewBox="0 0 64 86" fill="none" xmlns="http://www.w3.org/2000/svg">
<rect width="64" height="86" rx="32" fill="#F2F2F2"/>
<path d="M34.0261 54.4958L23.8459 44.3458C23.725 44.225 23.6392 44.0941 23.5885 43.9531C23.5377 43.8122 23.5128 43.6611 23.5136 43.5C23.5136 43.3389 23.5389 43.1878 23.5897 43.0469C23.6404 42.9059 23.7258 42.775 23.8459 42.6542L34.0261 32.474C34.308 32.192 34.6604 32.051 35.0834 32.051C35.5063 32.051 35.8688 32.2021 36.1709 32.5042C36.4729 32.8062 36.624 33.1587 36.624 33.5615C36.624 33.9642 36.4729 34.3167 36.1709 34.6187L27.2896 43.5L36.1709 52.3812C36.4528 52.6632 36.5938 53.0108 36.5938 53.424C36.5938 53.8373 36.4427 54.1946 36.1407 54.4958C35.8386 54.7979 35.4861 54.949 35.0834 54.949C34.6806 54.949 34.3282 54.7979 34.0261 54.4958Z" fill="black"/>
</svg>
