<svg width="53" height="53" viewBox="0 0 53 53" fill="none" xmlns="http://www.w3.org/2000/svg">
<rect width="52.2745" height="52.2745" rx="26.1373" fill="white"/>
<g clip-path="url(#clip0_8_548)">
<path d="M30.5948 21.6191C30.5059 21.6196 30.4178 21.6025 30.3355 21.5689C30.2532 21.5353 30.1784 21.4858 30.1153 21.4232L25.0972 16.4051C24.9709 16.2762 24.901 16.1023 24.9029 15.9218C24.9048 15.7413 24.9784 15.569 25.1073 15.4427C25.2363 15.3164 25.4102 15.2466 25.5906 15.2485C25.7711 15.2504 25.9435 15.3239 26.0698 15.4528L31.0946 20.4709C31.1875 20.5657 31.2505 20.6858 31.2755 20.8162C31.3006 20.9466 31.2867 21.0815 31.2355 21.204C31.1843 21.3265 31.0982 21.4312 30.9878 21.505C30.8775 21.5789 30.7478 21.6185 30.6151 21.6191H30.5948ZM22.5983 29.6156C22.5988 29.5267 22.5818 29.4386 22.5482 29.3563C22.5146 29.274 22.465 29.1992 22.4024 29.1361L17.3843 24.118C17.2572 23.9908 17.0847 23.9194 16.9048 23.9194C16.725 23.9194 16.5525 23.9908 16.4253 24.118C16.2981 24.2452 16.2267 24.4176 16.2267 24.5975C16.2267 24.7774 16.2981 24.9498 16.4253 25.077L21.4434 30.1221C21.5062 30.1854 21.5809 30.2357 21.6632 30.27C21.7455 30.3042 21.8338 30.3219 21.9229 30.3219C22.0121 30.3219 22.1003 30.3042 22.1826 30.27C22.2649 30.2357 22.3396 30.1854 22.4024 30.1221C22.4684 30.0558 22.5198 29.9766 22.5535 29.8894C22.5872 29.8022 22.6025 29.709 22.5983 29.6156ZM29.3994 37.5513H16.6144C16.5081 37.5553 16.4023 37.5341 16.3057 37.4894C16.2091 37.4447 16.1244 37.3778 16.0586 37.2942C15.9927 37.2106 15.9476 37.1126 15.9268 37.0082C15.906 36.9038 15.9102 36.796 15.939 36.6936L16.7022 33.9921C16.7431 33.846 16.8319 33.7179 16.9544 33.6284C17.0769 33.539 17.226 33.4934 17.3776 33.499H28.6362C28.7878 33.4934 28.9368 33.539 29.0594 33.6284C29.1819 33.7179 29.2707 33.846 29.3116 33.9921L30.0748 36.6936C30.1021 36.7938 30.1059 36.8989 30.086 37.0008C30.0661 37.1027 30.023 37.1986 29.9599 37.2812C29.895 37.3678 29.8102 37.4376 29.7126 37.4846C29.6151 37.5317 29.5076 37.5545 29.3994 37.5513ZM17.4992 36.2006H28.5011L28.0959 34.8498H17.8774L17.4992 36.2006ZM36.9501 33.1208L27.4948 23.6655L29.0887 22.0716L24.3948 17.3777L18.3569 23.4156L23.0373 28.096L24.6244 26.5156L34.0798 35.9709C34.4597 36.3504 34.9747 36.5635 35.5116 36.5635C36.0485 36.5635 36.5635 36.3504 36.9434 35.9709C37.3196 35.5925 37.5313 35.0809 37.5326 34.5473C37.5339 34.0136 37.3246 33.501 36.9501 33.1208ZM20.2615 23.4156L24.3948 19.316L27.1706 22.0918L23.0373 26.2184L20.2615 23.4156ZM35.9911 35.0321C35.8646 35.1579 35.6934 35.2285 35.515 35.2285C35.3365 35.2285 35.1654 35.1579 35.0388 35.0321L25.5835 25.5768L26.5358 24.6245L35.9911 34.0799C36.1169 34.2064 36.1875 34.3776 36.1875 34.556C36.1875 34.7344 36.1169 34.9056 35.9911 35.0321Z" fill="#222515"/>
</g>
<defs>
<clipPath id="clip0_8_548">
<rect width="24.3137" height="24.3137" fill="white" transform="translate(14.5883 14.5883)"/>
</clipPath>
</defs>
</svg>
