<svg width="43" height="43" viewBox="0 0 43 43" fill="none" xmlns="http://www.w3.org/2000/svg">
<rect width="43" height="43" rx="21.5" transform="matrix(-1 0 0 1 43 0)" fill="white"/>
<g clip-path="url(#clip0_8_364)">
<path d="M20.9422 10L21.0963 10.524V25.7287L20.9422 25.8826L13.8843 21.7107L20.9422 10Z" fill="#343434"/>
<path d="M20.9421 10L28 21.7107L20.9421 25.8826V18.5027V10Z" fill="#8C8C8C"/>
<path d="M20.9422 27.2189L21.0291 27.3248V32.7411L20.9422 32.9949L13.8801 23.0492L20.9422 27.2189Z" fill="#3C3C3B"/>
<path d="M20.9421 32.9948V27.2188L28 23.0491L20.9421 32.9948Z" fill="#8C8C8C"/>
<path d="M20.9422 25.8826L13.8844 21.7108L20.9422 18.5028V25.8826Z" fill="#141414"/>
<path d="M27.9999 21.7108L20.9422 25.8826V18.5028L27.9999 21.7108Z" fill="#393939"/>
</g>
<defs>
<clipPath id="clip0_8_364">
<rect width="14.1199" height="23" fill="white" transform="matrix(-1 0 0 1 28 10)"/>
</clipPath>
</defs>
</svg>
